<svg xmlns="http://www.w3.org/2000/svg" width="117" height="51" viewBox="0 0 117 51" fill="none">
  <path d="M13.0871 36.1533V50.4259H9.78406V44.5755H3.30306V50.4259H0V36.1533H3.30306V41.7806H9.78615V36.1533H13.0892H13.0871Z" fill="black"/>
  <path d="M18.3545 49.8649C17.437 49.3831 16.7197 48.7135 16.2046 47.8563C15.6875 46.9991 15.431 46.0292 15.431 44.9405C15.431 43.8517 15.6895 42.8818 16.2046 42.0246C16.7217 41.1674 17.437 40.4999 18.3545 40.016C19.272 39.5322 20.3084 39.2923 21.4636 39.2923C22.6189 39.2923 23.6511 39.5342 24.5623 40.016C25.4736 40.4978 26.1868 41.1674 26.7018 42.0246C27.219 42.8818 27.4755 43.8517 27.4755 44.9405C27.4755 46.0292 27.2169 46.9991 26.7018 47.8563C26.1847 48.7135 25.4715 49.3831 24.5623 49.8649C23.6511 50.3488 22.6189 50.5886 21.4636 50.5886C20.3084 50.5886 19.272 50.3488 18.3545 49.8649ZM23.4717 47.1534C23.9951 46.6028 24.2558 45.8665 24.2558 44.9425C24.2558 44.0186 23.9951 43.2802 23.4717 42.7296C22.9483 42.179 22.279 41.9036 21.4636 41.9036C20.6483 41.9036 19.9748 42.179 19.4451 42.7296C18.9154 43.2802 18.6506 44.0186 18.6506 44.9425C18.6506 45.8665 18.9154 46.6049 19.4451 47.1534C19.9748 47.704 20.6483 47.9794 21.4636 47.9794C22.279 47.9794 22.9483 47.704 23.4717 47.1534Z" fill="black"/>
  <path d="M46.9122 40.5062C47.7213 41.3155 48.1259 42.5273 48.1259 44.1458V50.4259H44.9458V44.636C44.9458 43.7662 44.7665 43.1175 44.4057 42.69C44.045 42.2624 43.532 42.0476 42.8668 42.0476C42.1203 42.0476 41.5281 42.2895 41.0943 42.7713C40.6585 43.2531 40.4417 43.9706 40.4417 44.9217V50.4259H37.2616V44.636C37.2616 42.9111 36.5693 42.0476 35.1826 42.0476C34.4486 42.0476 33.8647 42.2895 33.4289 42.7713C32.9931 43.2531 32.7762 43.9706 32.7762 44.9217V50.4259H29.5962V39.4571H32.6323V40.721C33.0411 40.258 33.5394 39.9055 34.1296 39.6615C34.7218 39.4175 35.3703 39.2944 36.0772 39.2944C36.8508 39.2944 37.5515 39.4467 38.1771 39.7533C38.8026 40.0599 39.3052 40.5041 39.6847 41.0881C40.133 40.5166 40.7002 40.0766 41.3863 39.7637C42.0723 39.4508 42.823 39.2944 43.6384 39.2944C45.0105 39.2944 46.1011 39.699 46.9101 40.5062H46.9122Z" fill="black"/>
  <path d="M61.7822 45.8373H53.487C53.6372 46.5173 53.9896 47.0533 54.5463 47.4475C55.1031 47.8417 55.7975 48.0399 56.6253 48.0399C57.1967 48.0399 57.7013 47.9543 58.1434 47.7854C58.5855 47.6164 58.9963 47.3474 59.3758 46.9803L61.067 48.8157C60.0348 49.9984 58.525 50.5886 56.5419 50.5886C55.3054 50.5886 54.2106 50.3488 53.2597 49.8649C52.3089 49.3831 51.5748 48.7135 51.0577 47.8563C50.5405 46.9991 50.2841 46.0292 50.2841 44.9405C50.2841 43.8517 50.5385 42.8985 51.0493 42.035C51.5582 41.1715 52.2588 40.4999 53.1492 40.016C54.0396 39.5342 55.0343 39.2923 56.1353 39.2923C57.2363 39.2923 58.181 39.5238 59.0505 39.9848C59.9201 40.4478 60.6019 41.109 61.1003 41.9725C61.5966 42.836 61.8448 43.8371 61.8448 44.9801C61.8448 45.0197 61.8239 45.3055 61.7843 45.8373H61.7822ZM54.342 42.3103C53.8519 42.7192 53.5537 43.276 53.4453 43.9831H58.8462C58.7377 43.2906 58.4374 42.7358 57.9495 42.3208C57.4595 41.9057 56.8631 41.6992 56.1562 41.6992C55.4493 41.6992 54.8299 41.9036 54.342 42.3103Z" fill="black"/>
  <path d="M66.0737 49.8649C65.1562 49.3831 64.4388 48.7135 63.9238 47.8563C63.4066 46.9991 63.1501 46.0292 63.1501 44.9405C63.1501 43.8517 63.4087 42.8818 63.9238 42.0246C64.4409 41.1674 65.1562 40.4999 66.0737 40.016C66.9912 39.5342 68.0276 39.2923 69.1828 39.2923C70.3381 39.2923 71.3703 39.5342 72.2815 40.016C73.1928 40.4978 73.9059 41.1674 74.421 42.0246C74.9381 42.8818 75.1946 43.8517 75.1946 44.9405C75.1946 46.0292 74.9361 46.9991 74.421 47.8563C73.9039 48.7135 73.1907 49.3831 72.2815 49.8649C71.3703 50.3488 70.3381 50.5886 69.1828 50.5886C68.0276 50.5886 66.9912 50.3488 66.0737 49.8649ZM71.1909 47.1534C71.7143 46.6028 71.975 45.8665 71.975 44.9425C71.975 44.0186 71.7143 43.2802 71.1909 42.7296C70.6675 42.179 69.9982 41.9036 69.1828 41.9036C68.3675 41.9036 67.696 42.179 67.1643 42.7296C66.6346 43.2802 66.3698 44.0186 66.3698 44.9425C66.3698 45.8665 66.6346 46.6049 67.1643 47.1534C67.6939 47.704 68.3675 47.9794 69.1828 47.9794C69.9982 47.9794 70.6675 47.704 71.1909 47.1534Z" fill="black"/>
  <path d="M94.6189 39.455L90.6444 50.4238H87.5874L85.1205 43.6139L82.5723 50.4238H79.5153L75.5616 39.455H78.5582L81.146 46.876L83.836 39.455H86.526L89.1346 46.876L91.8038 39.455H94.6168H94.6189Z" fill="black"/>
  <path d="M106.065 40.5166C106.901 41.3322 107.318 42.5419 107.318 44.1458V50.4259H104.138V44.636C104.138 43.7662 103.948 43.1175 103.567 42.69C103.187 42.2624 102.635 42.0476 101.915 42.0476C101.112 42.0476 100.474 42.2958 99.9988 42.7922C99.5234 43.2886 99.2857 44.0248 99.2857 45.003V50.4259H96.1057V39.4571H99.1418V40.7419C99.563 40.2789 100.086 39.9222 100.712 39.6719C101.338 39.4216 102.024 39.2944 102.77 39.2944C104.13 39.2944 105.227 39.7011 106.063 40.5166H106.065Z" fill="black"/>
  <path d="M114.769 39.7011C115.413 39.43 116.158 39.2944 117 39.2944V42.229C116.646 42.2019 116.408 42.1873 116.287 42.1873C115.376 42.1873 114.662 42.4418 114.147 42.9528C113.63 43.4617 113.374 44.2272 113.374 45.2471V50.4259H110.194V39.4571H113.23V40.9046C113.609 40.3748 114.122 39.9744 114.769 39.7011Z" fill="black"/>
  <path d="M58.5 0.391357L38.5774 11.8962V18.0491L42.7375 15.6464V28.24C42.7375 30.793 44.8144 32.8683 47.3647 32.8683H48.0653V23.9288H68.9368V32.8683H69.6374C72.1898 32.8683 74.2646 30.7909 74.2646 28.24V15.6443L78.4247 18.0471V11.8942L58.5 0.391357ZM68.9347 12.5699V18.6019H48.0633V12.5699L58.4979 6.54426L68.9326 12.5699H68.9347Z" fill="#1F9964"/>
  <path d="M58.5 16.2888C60.0478 16.2888 61.3026 15.0337 61.3026 13.4856C61.3026 11.9374 60.0478 10.6823 58.5 10.6823C56.9522 10.6823 55.6974 11.9374 55.6974 13.4856C55.6974 15.0337 56.9522 16.2888 58.5 16.2888Z" fill="#1F9964"/>
</svg>